<svg xmlns="http://www.w3.org/2000/svg" viewBox="0 0 360 280"><title>Fine, die freundliche Fledermaus</title><path d="M156 112C106 97 67 39 30 69 47 111 23 133 12 160 44 140 63 153 72 182 99 161 115 173 133 199L163 157M204 112C254 97 293 39 330 69 313 111 337 133 348 160 316 140 297 153 288 182 261 161 245 173 227 199L197 157" fill="#8c78bd" stroke="#62518e" stroke-width="5" stroke-linejoin="round"/><path d="M151 129Q82 106 30 69M145 146Q91 126 72 182M209 129Q278 106 330 69M215 146Q269 126 288 182" fill="none" stroke="#62518e" stroke-width="4" stroke-linecap="round"/><path d="M130 94 116 23Q150 28 164 62M230 94 244 23Q210 28 196 62" fill="#b5a1dc" stroke="#62518e" stroke-width="5" stroke-linejoin="round"/><path d="M137 71 128 41 153 63M223 71 232 41 207 63" fill="#f5bfcb"/><path d="M124 105Q117 56 180 57 243 56 236 105L242 160Q241 220 180 225 119 220 118 160Z" fill="#b5a1dc" stroke="#62518e" stroke-width="5"/><ellipse cx="180" cy="178" rx="40" ry="36" fill="#d9cbee"/><ellipse cx="153" cy="114" rx="19" ry="24" fill="#fffaf1"/><ellipse cx="207" cy="114" rx="19" ry="24" fill="#fffaf1"/><ellipse cx="158" cy="118" rx="8" ry="12" fill="#2d3348"/><ellipse cx="202" cy="118" rx="8" ry="12" fill="#2d3348"/><circle cx="160" cy="114" r="3" fill="white"/><circle cx="204" cy="114" r="3" fill="white"/><ellipse cx="135" cy="144" rx="12" ry="7" fill="#eeaabd"/><ellipse cx="225" cy="144" rx="12" ry="7" fill="#eeaabd"/><path d="M158 153Q180 178 202 153" fill="#4d3d65" stroke="#4d3d65" stroke-width="3" stroke-linejoin="round"/><path d="M164 158 169 169 175 161M187 161 193 169 198 157" fill="#fffaf1"/><path d="m179 132-6 2 7 7 7-7Z" fill="#62518e"/><path d="M155 220 149 238M205 220 211 238" stroke="#62518e" stroke-width="9" stroke-linecap="round"/><path d="m181 185 3 7 8 1-6 5 2 8-7-4-7 4 2-8-6-5 8-1Z" fill="#fff2a4"/></svg>
